HIERARCHY
ROOT Hips
{
	OFFSET 0.000000 0.000000 0.000000 
	CHANNELS 6 Xposition Yposition Zposition Zrotation Yrotation Xrotation
	JOINT LeftUpLeg
	{
		OFFSET 1.363060 -1.794630 0.839290 
		CHANNELS 3 Zrotation Yrotation Xrotation
		JOINT LeftLeg
		{
			OFFSET 2.448110 -6.726130 0.000000 
			CHANNELS 3 Zrotation Yrotation Xrotation
			JOINT LeftFoot
			{
				OFFSET 2.562200 -7.039590 0.000000 
				CHANNELS 3 Zrotation Yrotation Xrotation
				JOINT LeftToeBase
				{
					OFFSET 0.157640 -0.433110 2.322550 
					CHANNELS 3 Zrotation Yrotation Xrotation
					End Site
					{
						OFFSET 0.000000 0.000000 0.000000 
					}
				}
			}
		}
	}
	JOINT RightUpLeg
	{
		OFFSET -1.305520 -1.794630 0.839290 
		CHANNELS 3 Zrotation Yrotation Xrotation
		JOINT RightLeg
		{
			OFFSET -2.542530 -6.985550 0.000000 
			CHANNELS 3 Zrotation Yrotation Xrotation
			JOINT RightFoot
			{
				OFFSET -2.568260 -7.056230 0.000000 
				CHANNELS 3 Zrotation Yrotation Xrotation
				JOINT RightToeBase
				{
					OFFSET -0.164730 -0.452590 2.363150 
					CHANNELS 3 Zrotation Yrotation Xrotation
					End Site
					{
						OFFSET 0.000000 0.000000 0.000000 
					}
				}
			}
		}
	}
	JOINT Spine
	{
		OFFSET 0.028270 2.035590 -0.193380 
		CHANNELS 3 Zrotation Yrotation Xrotation
		JOINT Spine1
		{
			OFFSET 0.056720 2.048850 -0.042750 
			CHANNELS 3 Zrotation Yrotation Xrotation
			JOINT Neck1
			{
				OFFSET -0.054170 1.746240 0.172020 
				CHANNELS 3 Zrotation Yrotation Xrotation
				JOINT Head
				{
					OFFSET 0.104070 1.761360 -0.123970 
					CHANNELS 3 Zrotation Yrotation Xrotation
					End Site
					{
						OFFSET 0.000000 0.000000 0.000000 
					}
				}
			}
			JOINT LeftArm
			{
				OFFSET 3.362410 1.200890 -0.311210 
				CHANNELS 3 Zrotation Yrotation Xrotation
				JOINT LeftForeArm
				{
					OFFSET 4.983000 -0.000000 -0.000000 
					CHANNELS 3 Zrotation Yrotation Xrotation
					JOINT LeftHand
					{
						OFFSET 3.483560 -0.000000 -0.000000 
						CHANNELS 3 Zrotation Yrotation Xrotation
						JOINT LeftHandIndex1
						{
							OFFSET 0.715260 -0.000000 -0.000000 
							CHANNELS 3 Zrotation Yrotation Xrotation
							End Site
							{
								OFFSET 0.000000 0.000000 0.000000 
							}
						}
					}
				}
			}
			JOINT RightArm
			{
				OFFSET -3.136600 1.374050 -0.404650 
				CHANNELS 3 Zrotation Yrotation Xrotation
				JOINT RightForeArm
				{
					OFFSET -5.241900 -0.000000 -0.000000 
					CHANNELS 3 Zrotation Yrotation Xrotation
					JOINT RightHand
					{
						OFFSET -3.444170 -0.000000 -0.000000 
						CHANNELS 3 Zrotation Yrotation Xrotation
						JOINT RightHandIndex1
						{
							OFFSET -0.622530 -0.000000 -0.000000 
							CHANNELS 3 Zrotation Yrotation Xrotation
							End Site
							{
								OFFSET 0.000000 0.000000 0.000000 
							}
						}
					}
				}
			}
		}
	}
}
MOTION
Frames: 7
Frame Time: 0.041667
44.268261 17.755131 3.680113 -112.599270 -84.054169 125.897102 -7.966873 -5.618176 -18.451048 1.805501 10.445192 28.503708 -0.921969 6.304167 -4.617737 0.212400 -2.966800 -8.186400 27.533344 4.680947 -10.454645 -0.145435 -6.085791 15.538206 1.860579 -11.914225 -8.299853 -0.940800 -6.177900 17.301400 1.511391 -0.100975 -4.730200 5.933026 -0.304370 1.288191 5.211077 1.118428 10.073848 3.126400 0.500000 8.318100 -97.298030 2.873148 4.766297 11.387779 -30.194370 -3.469687 1.688309 2.711787 28.385030 -7.125000 0.000000 0.000000 84.372320 4.592568 24.302320 -10.292740 22.206842 -2.106061 -0.483010 0.552076 16.398592 7.125000 0.000000 0.000000 
44.263056 17.750727 3.668502 -110.667935 -84.077709 123.955512 -7.800200 -5.605565 -19.332066 2.094219 10.903663 29.990619 -0.840252 5.928082 -4.352985 0.242200 -3.166700 -8.743300 27.688104 4.741330 -10.494754 -0.158902 -6.141478 15.696385 1.859073 -11.935287 -8.609939 -0.947700 -6.199800 17.365100 1.521052 -0.087628 -4.707168 5.896436 -0.297593 1.265678 4.883993 1.098996 9.813901 2.945400 0.474100 8.205600 -97.286369 2.799633 5.004532 11.431656 -30.262089 -3.485912 1.697832 2.723909 28.350274 -7.125000 0.000000 0.000000 84.270330 4.560502 24.762745 -10.528782 22.579621 -2.199966 -0.485303 0.547537 16.056096 7.125000 0.000000 0.000000 
44.257150 17.746823 3.657291 -108.836982 -84.114295 122.104230 -7.655860 -5.648535 -20.214325 2.400717 11.361977 31.497925 -0.788949 5.676835 -3.985497 0.269000 -3.336200 -9.216200 27.793838 4.475962 -10.524216 -0.152203 -6.114528 15.622001 1.832125 -11.814183 -8.646559 -0.942100 -6.182000 17.313400 1.529656 -0.079538 -4.680470 5.875489 -0.294885 1.247971 4.735499 1.093596 9.586119 2.857700 0.467100 8.105200 -97.279989 2.721727 5.207561 11.461069 -30.300046 -3.489511 1.691442 2.702581 28.304074 -7.125000 0.000000 0.000000 84.137047 4.551413 25.230985 -10.741854 22.916701 -2.291730 -0.480658 0.548597 15.718852 7.125000 0.000000 0.000000 
44.249242 17.741918 3.644978 -106.655194 -84.118552 119.893203 -7.451550 -5.718642 -21.104864 2.730469 11.825701 33.058412 -0.707139 5.287849 -3.639959 0.312300 -3.592700 -9.933600 27.967985 4.375353 -10.563207 -0.159864 -6.145743 15.712321 1.812141 -11.747559 -8.902435 -0.966200 -6.258400 17.536100 1.538578 -0.105885 -4.650319 5.816444 -0.312025 1.250294 4.800397 1.109202 9.486008 2.892900 0.481700 8.073800 -97.242559 2.663215 5.433994 11.533644 -30.387292 -3.510221 1.682841 2.720982 28.228955 -7.125000 0.000000 0.000000 84.028320 4.512726 25.862157 -10.998018 23.320535 -2.397667 -0.479586 0.547793 15.429834 7.125000 0.000000 0.000000 
44.243436 17.738115 3.632967 -105.110939 -84.109543 118.295653 -7.266210 -5.752326 -22.029356 3.084178 12.294135 34.662726 -0.651112 5.006197 -3.216581 0.287000 -3.445500 -9.521500 28.120951 4.346917 -10.581555 -0.171575 -6.190581 15.841848 1.804594 -11.737745 -9.138071 -0.981100 -6.305000 17.672000 1.549174 -0.093319 -4.619839 5.789355 -0.308379 1.221659 4.743881 1.132304 9.317796 2.855900 0.494000 8.004800 -97.224170 2.635533 5.725982 11.661126 -30.547486 -3.551544 1.684927 2.739237 28.135009 -7.125000 0.000000 0.000000 83.890443 4.470749 26.413072 -11.263154 23.730896 -2.511804 -0.477054 0.547253 15.224318 7.125000 0.000000 0.000000 
44.234628 17.733910 3.621355 -103.213971 -84.106888 116.326966 -7.069332 -5.879172 -22.854492 3.438868 12.736556 36.210097 -0.618843 4.831887 -2.798969 0.276400 -3.381700 -9.343300 28.280985 4.310797 -10.575228 -0.184108 -6.237359 15.974591 1.809531 -11.785361 -9.350224 -0.964700 -6.253600 17.521900 1.561076 -0.078585 -4.584207 5.785144 -0.305864 1.211866 4.911999 1.131092 9.194128 2.937200 0.508300 7.957600 -97.205164 2.613858 6.100009 11.801573 -30.716661 -3.588452 1.664478 2.742468 27.995567 -7.125000 0.000000 0.000000 83.735670 4.404725 27.029713 -11.561114 24.181735 -2.621796 -0.489220 0.536702 14.833919 7.125000 0.000000 0.000000 
44.223417 17.728705 3.610945 -101.492058 -84.089775 114.527310 -6.902664 -5.984328 -23.709392 3.806579 13.170687 37.759949 -0.606264 4.752778 -2.529940 0.315300 -3.609600 -9.981000 28.440447 4.215694 -10.550702 -0.195029 -6.277340 16.091379 1.792165 -11.733518 -9.586964 -0.974400 -6.284200 17.611300 1.568854 -0.071280 -4.541126 5.738810 -0.305482 1.224830 4.880528 1.135424 9.033891 2.915300 0.512600 7.894100 -97.190842 2.587805 6.405756 11.958192 -30.892158 -3.625983 1.635729 2.719909 27.859936 -7.125000 0.000000 0.000000 83.586597 4.400272 27.628162 -11.788987 24.533390 -2.730017 -0.479712 0.542534 14.685231 7.125000 0.000000 0.000000 
